HIERARCHY
ROOT Hips
{
	OFFSET 0.00000 0.00000 0.00000
	CHANNELS 6 Xposition Yposition Zposition Zrotation Yrotation Xrotation 
	JOINT LHipJoint
	{
		OFFSET 0 0 0
		CHANNELS 3 Zrotation Yrotation Xrotation
		JOINT LeftUpLeg
		{
			OFFSET 1.41496 -1.84582 0.78394
			CHANNELS 3 Zrotation Yrotation Xrotation
			JOINT LeftLeg
			{
				OFFSET 2.58040 -7.08960 0.00000
				CHANNELS 3 Zrotation Yrotation Xrotation
				JOINT LeftFoot
				{
					OFFSET 2.64719 -7.27309 0.00000
					CHANNELS 3 Zrotation Yrotation Xrotation
					JOINT LeftToeBase
					{
						OFFSET 0.20718 -0.56921 2.20259
						CHANNELS 3 Zrotation Yrotation Xrotation
						End Site
						{
							OFFSET 0.00000 -0.00000 1.14243
						}
					}
				}
			}
		}
	}
	JOINT RHipJoint
	{
		OFFSET 0 0 0
		CHANNELS 3 Zrotation Yrotation Xrotation
		JOINT RightUpLeg
		{
			OFFSET -1.40551 -1.84582 0.78394
			CHANNELS 3 Zrotation Yrotation Xrotation
			JOINT RightLeg
			{
				OFFSET -2.56572 -7.04926 0.00000
				CHANNELS 3 Zrotation Yrotation Xrotation
				JOINT RightFoot
				{
					OFFSET -2.57974 -7.08778 0.00000
					CHANNELS 3 Zrotation Yrotation Xrotation
					JOINT RightToeBase
					{
						OFFSET -0.26704 -0.73369 2.20815
						CHANNELS 3 Zrotation Yrotation Xrotation
						End Site
						{
							OFFSET -0.00000 -0.00000 1.16246
						}
					}
				}
			}
		}
	}
	JOINT LowerBack
	{
		OFFSET 0 0 0
		CHANNELS 3 Zrotation Yrotation Xrotation
		JOINT Spine
		{
			OFFSET -0.04690 2.05196 -0.07017
			CHANNELS 3 Zrotation Yrotation Xrotation
			JOINT Spine1
			{
				OFFSET 0.04085 2.05260 0.00800
				CHANNELS 3 Zrotation Yrotation Xrotation
				JOINT Neck
				{
					OFFSET 0 0 0
					CHANNELS 3 Zrotation Yrotation Xrotation
					JOINT Neck1
					{
						OFFSET -0.03582 1.80995 0.19301
						CHANNELS 3 Zrotation Yrotation Xrotation
						JOINT Head
						{
							OFFSET 0.00952 1.80195 -0.36389
							CHANNELS 3 Zrotation Yrotation Xrotation
							End Site
							{
								OFFSET 0.00392 1.85062 -0.14494
							}
						}
					}
				}
				JOINT LeftShoulder
				{
					OFFSET 0 0 0
					CHANNELS 3 Zrotation Yrotation Xrotation
					JOINT LeftArm
					{
						OFFSET 3.55224 1.39726 -0.13667
						CHANNELS 3 Zrotation Yrotation Xrotation
						JOINT LeftForeArm
						{
							OFFSET 5.14507 -0.00000 -0.00000
							CHANNELS 3 Zrotation Yrotation Xrotation
							JOINT LeftHand
							{
								OFFSET 3.50646 -0.00000 0.00000
								CHANNELS 3 Zrotation Yrotation Xrotation
								JOINT LeftFingerBase
								{
									OFFSET 0 0 0
									CHANNELS 3 Zrotation Yrotation Xrotation
									JOINT LeftHandIndex1
									{
										OFFSET 0.62997 -0.00000 0.00000
										CHANNELS 3 Zrotation Yrotation Xrotation
										End Site
										{
											OFFSET 0.50790 -0.00000 0.00000
										}
									}
								}
								JOINT LThumb
								{
									OFFSET 0 0 0
									CHANNELS 3 Zrotation Yrotation Xrotation
									End Site
									{
										OFFSET 0.51565 -0.00000 0.51565
									}
								}
							}
						}
					}
				}
				JOINT RightShoulder
				{
					OFFSET 0 0 0
					CHANNELS 3 Zrotation Yrotation Xrotation
					JOINT RightArm
					{
						OFFSET -3.06467 1.61290 -0.28813
						CHANNELS 3 Zrotation Yrotation Xrotation
						JOINT RightForeArm
						{
							OFFSET -5.23200 -0.00000 -0.00000
							CHANNELS 3 Zrotation Yrotation Xrotation
							JOINT RightHand
							{
								OFFSET -3.65641 -0.00000 0.00000
								CHANNELS 3 Zrotation Yrotation Xrotation
								JOINT RightFingerBase
								{
									OFFSET 0 0 0
									CHANNELS 3 Zrotation Yrotation Xrotation
									JOINT RightHandIndex1
									{
										OFFSET -0.65681 -0.00000 0.00000
										CHANNELS 3 Zrotation Yrotation Xrotation
										End Site
										{
											OFFSET -0.52953 -0.00000 0.00000
										}
									}
								}
								JOINT RThumb
								{
									OFFSET 0 0 0
									CHANNELS 3 Zrotation Yrotation Xrotation
									End Site
									{
										OFFSET -0.53762 -0.00000 0.53762
									}
								}
							}
						}
					}
				}
			}
		}
	}
}
MOTION
Frames: 15
Frame Time: .0083333
-1.5772 15.0902 40.228 0 0 0 0 0 0 -21 0 0 0 0 0 0 0 0 0 0 0 0 0 0 21 0 0 0 0 0 0 0 0 0 0 0 0 0 0 0 0 0 0 0 0 0 0 -16 0 0 21 0 0 11 0 0 0 -8 0 0 0 0 0 0 0 0 0 0 0 0 0 0 0 0 0 0 0 0 8 0 0 0 0 0 0 0 0 0 0 0 0 0 0 0 0 0
-1.5772 15.0902 40.2280 -175.8990 2.3819 -158.0940 0.0000 0.0000 0.0000 -2.7117 -12.7344 -82.5878 13.1530 18.8367 69.5999 -0.1958 -11.4302 -4.7235 1.0635 -6.5566 -18.4082 0.0000 0.0000 0.0000 24.3490 -1.8315 20.0423 -0.4249 -4.1833 11.5929 -4.2206 -17.9989 37.6520 -1.6883 8.1843 -23.2752 5.7129 0.9965 15.7098 1.4447 2.7063 -2.2237 -2.3327 1.0101 -11.1224 -2.1214 -2.2870 -18.9720 0.8111 -2.9426 3.3135 0.3241 -1.5712 4.0327 -0.0000 -0.0000 0.0000 -53.8720 57.1327 61.1984 122.3376 -55.6542 -87.5966 -0.0000 0.0000 -9.1298 18.0726 -14.0370 -4.5255 -7.1250 0.0000 -0.0000 -6.3946 15.3079 4.5081 -0.0000 -0.0000 0.0000 68.9474 -8.2683 48.8136 -135.7453 50.3981 -98.3370 0.0000 -0.0000 -5.3996 -19.0180 5.0275 -1.7301 7.1250 -0.0000 -0.0000 5.7214 -24.6642 2.8253
-1.5620 15.1054 39.6943 -176.3290 0.7391 -159.0980 0.0000 0.0000 0.0000 -4.3667 -13.4268 -79.7330 13.5137 18.9598 70.7136 -0.1783 -10.7513 -4.3294 1.2344 -7.0456 -19.8505 0.0000 0.0000 0.0000 24.8916 -2.8239 16.8035 -1.1927 -6.9298 19.5077 -3.3235 -16.4740 33.2907 -2.3426 9.5460 -27.5187 6.0233 0.3972 16.3069 1.3371 1.9911 -1.8459 -2.4633 0.6580 -11.0885 -2.0825 -2.4069 -19.4036 1.0511 -3.1264 3.5009 0.3700 -1.6462 4.1621 0.0000 0.0000 0.0000 -56.5143 55.6632 58.8054 120.5985 -56.1483 -86.1565 -0.0000 0.0000 -9.3011 19.3496 -13.7904 -4.7849 -7.1250 0.0000 -0.0000 -5.5141 15.4439 3.8648 0.0000 0.0000 0.0000 69.9444 -9.7327 48.3426 -132.9992 51.7119 -96.2009 0.0000 -0.0000 -4.7120 -18.3122 4.2939 -1.4195 7.1250 -0.0000 -0.0000 6.2729 -25.4536 2.9850
-1.5363 15.1378 39.1992 -175.7010 1.4877 -157.9760 0.0000 0.0000 0.0000 -5.2023 -11.8247 -78.9165 13.7110 19.0240 71.3199 -0.1513 -10.2663 -4.3798 0.0981 -2.0202 -5.5615 0.0000 0.0000 0.0000 25.1264 -1.2599 11.7455 -2.2542 -9.3766 26.9806 -2.5625 -11.5101 28.8519 -2.3665 9.5910 -27.6622 5.6298 0.8251 15.5135 1.3980 2.4396 -2.3066 -2.2666 0.8838 -11.1223 -2.1991 -2.4239 -18.8973 1.3640 -3.1442 3.3696 0.4916 -1.6329 4.0526 -0.0000 -0.0000 0.0000 -59.3171 54.4058 56.6205 118.8880 -56.5991 -84.7321 -0.0000 0.0000 -10.1102 20.6563 -13.3034 -4.9580 -7.1250 0.0000 -0.0000 -4.6002 15.8287 3.1814 -0.0000 -0.0000 0.0000 71.0078 -11.7229 47.9857 -129.4179 53.2276 -93.3603 0.0000 -0.0000 -3.4619 -17.9823 3.7204 -1.2065 7.1250 -0.0000 -0.0000 6.5443 -26.0604 3.0225
-1.5167 15.1855 38.6682 -175.7690 0.5782 -158.3740 0.0000 0.0000 0.0000 -6.5190 -11.7019 -76.1343 13.8392 19.0645 71.7128 0.1085 -11.1809 -9.3671 0.2955 -3.4952 -9.6606 0.0000 0.0000 0.0000 25.4170 -1.8558 8.4855 -3.3560 -11.2502 33.1283 -1.9730 -8.6228 25.2018 -3.7076 11.7608 -34.8908 5.8015 0.5469 15.7601 1.3224 2.1047 -2.1335 -2.3699 0.7156 -11.0894 -2.2029 -2.5009 -19.0486 1.7071 -3.2806 3.3042 0.5855 -1.6823 4.0638 -0.0000 -0.0000 0.0000 -61.8141 52.2319 54.6562 116.7056 -57.1257 -82.9046 -0.0000 0.0000 -11.0890 22.0696 -12.8619 -5.1571 -7.1250 0.0000 -0.0000 -3.6077 16.1568 2.4662 -0.0000 -0.0000 0.0000 72.6141 -13.5024 46.8844 -125.0627 54.8026 -89.8353 0.0000 -0.0000 -2.5398 -17.5902 3.0728 -0.9736 7.1250 -0.0000 -0.0000 6.8716 -26.7424 3.0651
-1.4904 15.2685 38.1412 -176.2180 -0.1442 -158.6570 0.0000 0.0000 0.0000 -7.9414 -11.7370 -73.0945 13.7580 19.0390 71.4641 0.2390 -13.2194 -12.0364 0.0086 -0.5993 -1.6469 0.0000 0.0000 0.0000 25.4685 -1.9466 4.4975 -4.6988 -13.0364 39.5048 -1.5811 -9.6549 22.5649 -2.9788 10.6606 -31.1435 5.4731 0.2624 16.0809 1.2103 1.6594 -2.0159 -2.2034 0.5175 -11.1829 -2.2542 -2.4809 -19.0112 1.9502 -3.2772 3.0523 0.6715 -1.6742 3.9849 0.0000 0.0000 0.0000 -64.6098 49.2884 52.5143 113.1990 -57.8654 -79.9470 -0.0000 0.0000 -11.8001 21.8516 -12.6112 -5.0038 -7.1250 0.0000 -0.0000 -3.7477 16.4459 2.5389 0.0000 0.0000 0.0000 74.4368 -15.2336 45.5802 -118.5374 56.6873 -84.4392 0.0000 -0.0000 -2.9156 -18.3901 2.3062 -0.7665 7.1250 -0.0000 -0.0000 6.2992 -27.5332 2.6889
-1.4653 15.3043 37.6306 -176.5910 -0.7258 -158.7830 0.0000 0.0000 0.0000 -9.2701 -11.5024 -70.5075 13.7046 19.0220 71.3002 0.4463 -13.7345 -14.3446 0.0130 0.7371 2.0256 0.0000 0.0000 0.0000 25.3530 -1.9809 0.8786 -6.1356 -14.5585 45.5237 -1.1798 -8.9080 19.4881 -3.0722 10.8110 -31.6450 5.1140 0.1580 16.2821 1.1061 1.2989 -1.9678 -2.0145 0.3008 -11.2703 -2.2841 -2.4855 -19.0108 2.1784 -3.3046 2.8997 0.7457 -1.6795 3.9427 -0.0000 -0.0000 0.0000 -66.8830 46.6947 50.8324 110.0363 -58.4274 -77.2603 -0.0000 0.0000 -12.4191 22.2206 -12.3656 -4.9996 -7.1250 0.0000 -0.0000 -3.4816 16.6722 2.3407 -0.0000 -0.0000 0.0000 76.0560 -16.8583 44.1646 -112.4378 58.0095 -79.3019 0.0000 -0.0000 -2.9083 -18.6106 1.6961 -0.5711 7.1250 -0.0000 -0.0000 6.1611 -28.1709 2.5361
-1.4382 15.3364 37.1263 -177.1970 -1.2933 -158.9090 0.0000 0.0000 0.0000 -10.6586 -11.3895 -67.8915 13.6108 18.9917 71.0122 0.6851 -14.2408 -16.6505 0.0784 1.8068 4.9720 0.0000 0.0000 0.0000 24.9685 -1.9514 -2.9445 -7.7555 -15.9364 51.6771 -0.8300 -8.3404 16.4030 -3.0822 10.8269 -31.6983 4.4876 -0.0576 16.5467 0.9713 0.8929 -1.9121 -1.7079 0.1461 -11.3946 -2.3043 -2.4641 -19.0053 2.3539 -3.2985 2.6979 0.8052 -1.6734 3.8827 -0.0000 -0.0000 0.0000 -69.0056 43.8441 49.3400 106.4063 -58.9581 -74.1586 -0.0000 0.0000 -12.9399 22.3910 -12.1622 -4.9607 -7.1250 0.0000 -0.0000 -3.3545 16.8733 2.2403 -0.0000 -0.0000 0.0000 77.7284 -18.3580 42.4879 -105.4144 59.0829 -73.3081 0.0000 -0.0000 -3.1458 -19.0244 1.1277 -0.3888 7.1250 -0.0000 -0.0000 5.8712 -28.7666 2.3323
-1.4095 15.3628 36.6275 -178.1310 -1.9418 -159.1230 0.0000 0.0000 0.0000 -12.1659 -11.5270 -65.1760 13.5386 18.9681 70.7902 0.9438 -14.7568 -18.8773 0.1339 2.3585 6.4975 0.0000 0.0000 0.0000 24.2354 -2.0319 -6.8020 -9.4615 -17.0957 57.6728 -0.5360 -8.0077 13.3684 -3.0504 10.7762 -31.5289 3.5971 -0.3241 16.9442 0.7898 0.3595 -1.8183 -1.2662 -0.0529 -11.5531 -2.3113 -2.4208 -19.0085 2.4686 -3.2647 2.4490 0.8461 -1.6595 3.8072 -0.0000 0.0000 0.0000 -70.9733 40.7651 48.0437 102.3215 -59.4185 -70.6499 -0.0000 0.0000 -13.2950 22.4758 -12.0193 -4.9241 -7.1250 0.0000 -0.0000 -3.2894 17.0182 2.1863 -0.0000 0.0000 0.0000 79.3982 -19.6823 40.5719 -97.5499 59.7835 -66.5336 0.0000 -0.0000 -3.6348 -19.5983 0.5969 -0.2125 7.1250 -0.0000 -0.0000 5.4530 -29.3264 2.0919
-1.3798 15.3773 36.1369 -179.3760 -2.5873 -159.3580 0.0000 0.0000 0.0000 -13.7980 -11.8694 -62.4418 13.4737 18.9466 70.5906 1.1712 -15.3120 -20.7015 0.1828 2.7541 7.5949 0.0000 0.0000 0.0000 23.0964 -2.1104 -10.8041 -11.2582 -18.0591 63.6173 -0.2899 -7.6990 10.2722 -2.9516 10.6162 -30.9962 2.4112 -0.6002 17.4205 0.5606 -0.2635 -1.7051 -0.6780 -0.2763 -11.7233 -2.3214 -2.3586 -18.9990 2.5414 -3.2052 2.1471 0.8771 -1.6376 3.7121 -0.0000 0.0000 0.0000 -72.8100 37.5079 46.9326 97.8545 -59.7656 -66.7969 -0.0000 0.0000 -13.4511 22.5943 -11.9556 -4.9271 -7.1250 0.0000 -0.0000 -3.2040 17.0751 2.1254 -0.0000 0.0000 0.0000 81.0030 -20.8078 38.4664 -89.0143 59.9963 -59.1463 0.0000 -0.0000 -4.3157 -20.3071 0.1311 -0.0485 7.1250 -0.0000 -0.0000 4.9225 -29.8223 1.8287
-1.3500 15.3853 35.6516 -180.8830 -3.2391 -159.6140 0.0000 0.0000 0.0000 -15.5516 -12.3830 -59.6399 13.4150 18.9269 70.4095 1.3859 -15.7677 -22.2900 0.1838 2.7617 7.6159 0.0000 0.0000 0.0000 21.5667 -2.2109 -14.9202 -13.0862 -18.8131 69.3932 -0.0992 -7.3194 7.1406 -2.8718 10.4846 -30.5608 0.9953 -0.8788 17.9710 0.2897 -0.9634 -1.5706 0.0259 -0.5232 -11.8898 -2.3420 -2.2868 -18.9791 2.5976 -3.1323 1.8039 0.9060 -1.6121 3.6021 -0.0000 -0.0000 0.0000 -74.5266 34.1076 46.0018 93.1331 -59.9629 -62.7130 -0.0000 0.0000 -13.3855 22.8625 -11.9688 -4.9973 -7.1250 0.0000 -0.0000 -3.0178 17.0350 2.0041 -0.0000 -0.0000 0.0000 82.4972 -21.7395 36.2061 -80.1906 59.6333 -51.5153 0.0000 -0.0000 -5.1540 -21.0150 -0.3356 0.1289 7.1250 -0.0000 -0.0000 4.3889 -30.3239 1.5767
-1.3219 15.3853 35.1709 -182.5360 -3.9107 -159.8750 0.0000 0.0000 0.0000 -17.3383 -13.0138 -56.7941 13.3664 18.9105 70.2598 1.5656 -16.4204 -23.6229 0.1545 2.5328 6.9807 0.0000 0.0000 0.0000 19.7540 -2.3121 -19.1417 -14.8920 -19.3626 74.9111 0.0351 -6.9078 3.9339 -2.7733 10.3187 -30.0150 -0.5138 -1.1598 18.5657 -0.0016 -1.7160 -1.4275 0.7855 -0.7910 -12.0421 -2.3799 -2.2106 -18.9325 2.6662 -3.0520 1.4385 0.9423 -1.5834 3.4816 -0.0000 0.0000 0.0000 -76.1386 30.6340 45.2350 88.3667 -59.9899 -58.5856 -0.0000 0.0000 -13.0847 23.3441 -12.0508 -5.1487 -7.1250 0.0000 -0.0000 -2.6862 16.8993 1.7914 -0.0000 0.0000 0.0000 83.8359 -22.5079 33.8662 -71.4414 58.6577 -44.0002 0.0000 -0.0000 -6.0725 -21.6948 -0.8361 0.3326 7.1250 -0.0000 -0.0000 3.8752 -30.8665 1.3409
-1.2973 15.3757 34.6936 -184.1900 -4.6013 -160.1220 0.0000 0.0000 0.0000 -19.0590 -13.6707 -53.9425 13.3259 18.8967 70.1346 1.7064 -17.2226 -24.7035 0.1232 2.2629 6.2327 0.0000 0.0000 0.0000 17.7988 -2.3748 -23.4554 -16.6180 -19.7235 80.0678 0.1106 -6.5541 0.6806 -2.6750 10.1493 -29.4617 -1.9556 -1.4403 19.1513 -0.2929 -2.4806 -1.2765 1.5186 -1.0714 -12.1511 -2.4309 -2.1370 -18.8827 2.7644 -2.9744 1.0802 0.9895 -1.5546 3.3638 -0.0000 -0.0000 0.0000 -77.6475 27.1448 44.6180 83.8589 -59.8570 -54.6842 -0.0000 0.0000 -12.5560 24.0220 -12.1365 -5.3531 -7.1250 0.0000 -0.0000 -2.2192 16.7378 1.4872 -0.0000 -0.0000 0.0000 84.9965 -23.1512 31.5059 -63.1570 57.0941 -36.9801 0.0000 -0.0000 -6.9992 -22.2559 -1.4447 0.5911 7.1250 -0.0000 -0.0000 3.4574 -31.5292 1.1408
-1.2775 15.3564 34.2194 -185.6970 -5.2533 -160.3240 0.0000 0.0000 0.0000 -20.6161 -14.2150 -51.1767 13.2926 18.8853 70.0319 1.8298 -18.0299 -25.6521 0.0889 1.9234 5.2940 0.0000 0.0000 0.0000 15.8408 -2.2919 -27.8897 -18.2187 -19.9238 84.7856 0.1301 -6.3847 -2.5032 -2.5855 9.9917 -28.9499 -3.2086 -1.7039 19.6794 -0.5610 -3.1959 -1.1434 2.1602 -1.3418 -12.2286 -2.5341 -2.0733 -18.6195 2.8396 -2.8986 0.3141 1.1458 -1.5355 3.5045 -0.0000 0.0000 0.0000 -79.0638 23.7484 44.1382 79.9583 -59.6155 -51.3149 -0.0000 0.0000 -11.8327 24.7932 -12.1690 -5.5614 -7.1250 0.0000 -0.0000 -1.6855 16.6214 1.1334 -0.0000 0.0000 0.0000 85.9531 -23.7370 29.1961 -55.5959 55.0173 -30.7036 0.0000 -0.0000 -7.7937 -22.7289 -2.0124 0.8428 7.1250 -0.0000 -0.0000 3.1055 -32.1514 0.9779
-1.2626 15.3278 33.7459 -186.9710 -5.8653 -160.4870 0.0000 0.0000 0.0000 -21.9547 -14.5600 -48.5091 13.2622 18.8748 69.9378 1.9338 -18.9162 -26.4929 0.0644 1.6374 4.5045 0.0000 0.0000 0.0000 13.9911 -2.0318 -32.4205 -19.6507 -19.9971 88.9787 0.1056 -6.4789 -5.5390 -2.4606 9.7659 -28.2221 -4.1928 -1.9606 20.1074 -0.7897 -3.8421 -1.0297 2.6723 -1.5968 -12.2649 -2.5874 -2.0106 -18.5927 2.9824 -2.8312 0.0851 1.2097 -1.5058 3.4197 -0.0000 -0.0000 0.0000 -80.4040 20.5471 43.7780 76.9822 -59.3499 -48.7509 -0.0000 0.0000 -10.9916 25.5413 -12.1324 -5.7351 -7.1250 0.0000 -0.0000 -1.1641 16.5803 0.7837 -0.0000 -0.0000 0.0000 86.6878 -24.3288 27.0124 -48.8995 52.5419 -25.2980 0.0000 -0.0000 -8.3408 -23.0264 -2.5294 1.0746 7.1250 -0.0000 -0.0000 2.8911 -32.7185 0.8707
